<?xml version="1.0" standalone="no"?>
<!DOCTYPE svg PUBLIC "-//W3C//DTD SVG 20010904//EN"
 "http://www.w3.org/TR/2001/REC-SVG-20010904/DTD/svg10.dtd">
<svg version="1.0" xmlns="http://www.w3.org/2000/svg"
 width="233.000000pt" height="175.000000pt" viewBox="0 0 233.000000 175.000000"
 preserveAspectRatio="xMidYMid meet">

<g transform="translate(0.000000,175.000000) scale(0.100000,-0.100000)"
fill="#000000" stroke="none">
<path d="M0 875 l0 -875 1165 0 1165 0 0 875 0 875 -1165 0 -1165 0 0 -875z
m1665 619 c269 -129 480 -236 493 -250 22 -25 22 -26 22 -369 0 -343 0 -344
-22 -368 -31 -34 -933 -417 -981 -417 -45 0 -924 390 -949 421 -16 19 -18 52
-18 363 0 296 2 345 16 364 17 25 915 481 949 481 11 1 231 -101 490 -225z"/>
<path d="M705 1452 l-450 -227 0 -350 0 -350 215 -95 c118 -53 326 -145 461
-204 l247 -108 453 192 c250 106 466 199 482 206 l27 15 0 343 c0 263 -3 346
-12 353 -29 22 -939 453 -955 452 -10 0 -220 -102 -468 -227z m975 -66 l405
-195 3 -313 2 -313 -449 -193 c-247 -105 -456 -192 -463 -192 -7 0 -126 50
-263 111 -138 60 -332 146 -432 191 l-183 80 0 314 0 314 437 219 437 218 51
-23 c27 -12 232 -110 455 -218z"/>
<path d="M747 1393 l-427 -213 0 -304 0 -303 427 -189 c235 -104 432 -188 438
-186 5 2 207 87 448 190 l437 187 -2 303 -3 303 -365 175 c-201 97 -401 193
-446 213 l-80 38 -427 -214z m644 -188 c98 -170 177 -314 176 -320 -2 -5 -35
-10 -73 -10 -57 0 -69 3 -72 17 -3 14 6 17 46 20 l50 3 -157 272 c-86 150
-159 273 -162 273 -4 0 -275 -464 -316 -542 -2 -5 30 -8 71 -8 l75 0 57 98
c78 134 103 172 113 172 9 0 43 -58 298 -500 93 -162 102 -170 159 -156 73 19
87 122 21 158 -12 6 -51 14 -86 17 -41 4 -66 11 -69 20 -4 10 12 12 81 10 73
-3 89 -7 110 -27 57 -54 59 -128 6 -182 -28 -27 -37 -30 -92 -30 l-62 1 -60
102 -60 102 -357 0 -356 0 -26 -24 c-19 -18 -26 -35 -26 -60 1 -53 28 -82 81
-88 l45 -5 40 68 c22 39 47 70 57 72 24 5 21 -7 -28 -95 l-40 -73 -61 0 c-54
0 -66 4 -92 28 -57 53 -55 130 4 181 34 30 37 31 139 31 l104 0 27 50 c17 32
34 50 46 50 23 0 22 -2 -2 -50 -11 -22 -20 -42 -20 -45 0 -3 99 -5 220 -5 121
0 220 3 220 6 0 3 -16 35 -36 70 l-36 64 -259 0 c-226 0 -259 2 -259 15 0 27
354 635 368 632 8 -1 94 -141 193 -312z"/>
<path d="M1136 1019 c-31 -55 -55 -103 -53 -105 2 -3 56 -3 120 -2 l116 3 -57
102 c-31 57 -59 103 -62 103 -3 0 -32 -45 -64 -101z"/>
</g>
</svg>
